<?xml version="1.0" standalone="no"?>
<!DOCTYPE svg PUBLIC "-//W3C//DTD SVG 20010904//EN"
 "http://www.w3.org/TR/2001/REC-SVG-20010904/DTD/svg10.dtd">
<svg version="1.0" xmlns="http://www.w3.org/2000/svg"
 width="274.000000pt" height="274.000000pt" viewBox="0 0 274.000000 274.000000"
 preserveAspectRatio="xMidYMid meet">
<metadata>
Created by potrace 1.11, written by Peter Selinger 2001-2013
</metadata>
<g transform="translate(0.000000,274.000000) scale(0.100000,-0.100000)"
fill="#000000" stroke="none">
<path d="M925 2422 c-49 -27 -144 -77 -210 -112 -66 -34 -142 -75 -170 -90
-27 -15 -93 -50 -145 -77 -52 -28 -147 -78 -211 -111 -63 -34 -123 -70 -133
-81 -14 -15 -19 -41 -22 -103 -2 -46 -6 -121 -9 -167 -2 -50 0 -93 7 -105 14
-29 306 -522 333 -566 13 -19 62 -101 110 -183 85 -144 105 -167 142 -167 21
0 40 10 228 115 22 12 65 36 95 52 30 17 72 40 93 53 22 13 42 19 47 14 4 -5
54 -92 111 -194 57 -102 115 -197 129 -211 20 -20 52 -33 140 -53 130 -31 143
-34 185 -42 17 -3 46 -9 65 -15 102 -28 563 -129 589 -129 63 0 80 31 202 355
180 481 209 563 209 597 0 17 -23 95 -51 172 -28 78 -64 179 -80 226 -52 148
-64 173 -89 191 -15 11 -89 30 -180 48 -85 17 -261 50 -390 75 -439 85 -421
83 -470 57 -24 -12 -46 -19 -50 -14 -4 4 -67 107 -140 228 -135 225 -182 285
-222 285 -13 0 -63 -22 -113 -48z"/>
</g>
</svg>
